<?xml version="1.0" encoding="UTF-8"?>
<svg width="1920" height="1080" viewBox="0 0 1920 1080" fill="none" xmlns="http://www.w3.org/2000/svg">
  <defs>
    <linearGradient id="exonet-bg" x1="0" y1="0" x2="1920" y2="1080" gradientUnits="userSpaceOnUse">
      <stop offset="0%" stop-color="#6366F1"/>
      <stop offset="100%" stop-color="#8B5CF6"/>
    </linearGradient>
    <pattern id="circuit" width="100" height="100" patternUnits="userSpaceOnUse">
      <path d="M0 50 H40 M60 50 H100 M50 0 V40 M50 60 V100" stroke="white" stroke-width="1" opacity="0.1"/>
      <circle cx="50" cy="50" r="2" fill="white" opacity="0.2"/>
    </pattern>
  </defs>
  <rect width="1920" height="1080" fill="url(#exonet-bg)"/>
  <rect width="1920" height="1080" fill="url(#circuit)"/>
  <g opacity="0.2">
    <path d="M860 340 H1060 V540 H860 Z" stroke="white" stroke-width="2" fill="none"/>
    <path d="M860 540 H1060 V740 H860 Z" stroke="white" stroke-width="2" fill="none"/>
    <path d="M760 440 H860 M1060 440 H1160" stroke="white" stroke-width="2"/>
    <path d="M760 640 H860 M1060 640 H1160" stroke="white" stroke-width="2"/>
    <circle cx="760" cy="440" r="5" fill="white"/>
    <circle cx="1160" cy="440" r="5" fill="white"/>
    <circle cx="760" cy="640" r="5" fill="white"/>
    <circle cx="1160" cy="640" r="5" fill="white"/>
  </g>
</svg>
